<?xml version="1.0" encoding="UTF-8" standalone="no"?><!DOCTYPE svg PUBLIC "-//W3C//DTD SVG 1.1//EN" "http://www.w3.org/Graphics/SVG/1.1/DTD/svg11.dtd"><svg width="100%" height="100%" viewBox="0 0 100 100" version="1.1" xmlns="http://www.w3.org/2000/svg" xmlns:xlink="http://www.w3.org/1999/xlink" xml:space="preserve" xmlns:serif="http://www.serif.com/" style="fill-rule:evenodd;clip-rule:evenodd;stroke-linejoin:round;stroke-miterlimit:2;"><path d="M50,87.5c-5.208,0 -10.087,-0.99 -14.635,-2.969c-4.549,-1.979 -8.507,-4.653 -11.875,-8.021c-3.368,-3.368 -6.042,-7.326 -8.021,-11.875c-1.979,-4.548 -2.969,-9.427 -2.969,-14.635c-0,-5.208 0.99,-10.087 2.969,-14.635c1.979,-4.549 4.653,-8.507 8.021,-11.875c3.368,-3.368 7.326,-6.042 11.875,-8.021c4.548,-1.979 9.427,-2.969 14.635,-2.969c5.694,-0 11.094,1.215 16.198,3.646c5.104,2.43 9.427,5.868 12.969,10.312l-0,-9.791l8.333,-0l0,25l-25,-0l0,-8.334l11.458,0c-2.847,-3.889 -6.354,-6.944 -10.52,-9.166c-4.167,-2.223 -8.646,-3.334 -13.438,-3.334c-8.125,0 -15.017,2.83 -20.677,8.49c-5.66,5.66 -8.49,12.552 -8.49,20.677c0,8.125 2.83,15.017 8.49,20.677c5.66,5.66 12.552,8.49 20.677,8.49c7.292,-0 13.663,-2.361 19.115,-7.084c5.451,-4.722 8.663,-10.694 9.635,-17.916l8.542,-0c-1.042,9.514 -5.122,17.448 -12.24,23.802c-7.118,6.354 -15.469,9.531 -25.052,9.531Zm-18.775,-63.916l14.608,5.583l-14.608,-5.583Z" style="fill-rule:nonzero;"/></svg>